<svg xmlns="http://www.w3.org/2000/svg" viewBox="0 0 9.76 14.93"><defs><style>.cls-1{fill:#094b5d;}</style></defs><title>vvvvvAsset 1</title><g id="Layer_2" data-name="Layer 2"><g id="Layer_1-2" data-name="Layer 1"><path class="cls-1" d="M7.18,14.93A4.69,4.69,0,0,1,3.82,13,16.5,16.5,0,0,1,1.47,9.23,15.1,15.1,0,0,1,0,4.48a5.34,5.34,0,0,1,.17-2.2A3,3,0,0,1,1.49.58L2.06.21A1.46,1.46,0,0,1,4.11.8l1,2.06A1.41,1.41,0,0,1,4.59,4.6l-.71.5a12,12,0,0,0,1,2.56A11.69,11.69,0,0,0,6.18,10L7,9.8a1.58,1.58,0,0,1,.38-.05,1.36,1.36,0,0,1,1.25.8l1,2.06a1.44,1.44,0,0,1,0,1.17,1.42,1.42,0,0,1-.88.78l-.65.21A2.84,2.84,0,0,1,7.18,14.93ZM2.83,1a.48.48,0,0,0-.23.07L2,1.42a2,2,0,0,0-.87,1.16A4.68,4.68,0,0,0,1,4.39,14.45,14.45,0,0,0,2.37,8.81a15.89,15.89,0,0,0,2.2,3.52c1.16,1.33,2.25,1.84,3.22,1.49l.68-.21A.42.42,0,0,0,8.72,13L7.76,11a.38.38,0,0,0-.46-.2l-1.41.37L5.69,11A9.24,9.24,0,0,1,3.93,8.08,9.31,9.31,0,0,1,2.84,4.87V4.61L4,3.78a.39.39,0,0,0,.15-.49l-1-2.07A.44.44,0,0,0,2.83,1Z"/></g></g></svg>