<svg xmlns="http://www.w3.org/2000/svg" viewBox="0 0 13.93 13.93"><defs><style>.cls-1,.cls-2,.cls-3{fill:#094b5d;}.cls-2,.cls-3{stroke:#094b5d;stroke-miterlimit:10;}.cls-2{stroke-width:0.25px;}.cls-3{stroke-width:0.15px;}</style></defs><title>vvvvvAsset 10</title><g id="Layer_2" data-name="Layer 2"><g id="Layer_1-2" data-name="Layer 1"><path class="cls-1" d="M12.51,13.93H1.42A1.43,1.43,0,0,1,0,12.51V1.42A1.43,1.43,0,0,1,1.42,0H12.51a1.43,1.43,0,0,1,1.42,1.42V12.51A1.43,1.43,0,0,1,12.51,13.93ZM1.42.93a.49.49,0,0,0-.49.49V12.51a.49.49,0,0,0,.49.49H12.51a.49.49,0,0,0,.49-.49V1.42a.49.49,0,0,0-.49-.49Z"/><path class="cls-2" d="M3.13,11.21V5.51H4.64v5.7Z"/><path class="cls-2" d="M11.37,11.21H9.86V8.3a4.8,4.8,0,0,0-.09-1.19.85.85,0,0,0-.32-.42.89.89,0,0,0-.52-.15,1.2,1.2,0,0,0-.7.21,1.07,1.07,0,0,0-.43.57,4.74,4.74,0,0,0-.12,1.31v2.58H6.17V5.51H7.58v.84a2.33,2.33,0,0,1,2.79-.79A1.54,1.54,0,0,1,11,6a1.81,1.81,0,0,1,.29.63,4.54,4.54,0,0,1,.08,1Z"/><circle class="cls-3" cx="3.96" cy="3.96" r="1"/></g></g></svg>